<svg width="70" height="70" viewBox="0 0 70 70" fill="none" xmlns="http://www.w3.org/2000/svg">
<path fill-rule="evenodd" clip-rule="evenodd" d="M11.4894 8.68123C11.6551 8.52942 11.8489 8.41194 12.0597 8.33552C12.2705 8.2591 12.4943 8.22521 12.7181 8.23575C12.9419 8.24634 13.1615 8.30118 13.3643 8.39719C13.5671 8.49314 13.7491 8.62839 13.8999 8.79512C14.0508 8.96191 14.1675 9.1569 14.2434 9.36907C14.3194 9.58125 14.3531 9.80641 14.3426 10.0316C14.332 10.2569 14.2776 10.4779 14.1822 10.6819C14.0869 10.886 13.9525 11.0692 13.7867 11.221C9.23677 15.3769 5.98884 20.7772 4.44022 26.7613C2.8916 32.7454 3.1094 39.054 5.06697 44.9155C5.95421 47.5622 7.18725 50.0785 8.73367 52.3981C8.85816 52.585 8.94479 52.7948 8.9887 53.0155C9.03261 53.2361 9.0329 53.4633 8.98955 53.6841C8.94621 53.9049 8.86008 54.1149 8.73605 54.3021C8.61207 54.4894 8.45261 54.6502 8.26684 54.7755C8.08108 54.9008 7.87262 54.988 7.65335 55.0322C7.43408 55.0764 7.20836 55.0766 6.98898 55.033C6.7696 54.9894 6.56091 54.9027 6.3748 54.7779C6.18875 54.6531 6.0289 54.4927 5.90441 54.3057C1.23945 47.2882 -0.763088 38.8167 0.262182 30.4369C1.28745 22.0571 5.2722 14.3276 11.4894 8.65845V8.68123ZM23.0837 67.9042C22.659 67.7488 22.3131 67.4299 22.1221 67.0176C21.931 66.6053 21.9106 66.1338 22.0652 65.7062C22.2197 65.2785 22.5367 64.9306 22.9463 64.7387C23.3559 64.5462 23.8247 64.5257 24.2493 64.6811C26.2659 65.4146 28.3515 65.9391 30.4737 66.2471C32.6077 66.5541 34.7669 66.6435 36.9188 66.5148C39.9411 66.3354 42.9219 65.7181 45.7687 64.6811C45.979 64.6065 46.2019 64.5741 46.4246 64.586C46.6474 64.598 46.8656 64.6538 47.0668 64.7506C47.268 64.8474 47.4484 64.983 47.5975 65.1498C47.7466 65.3167 47.8616 65.5114 47.9359 65.7232C48.0103 65.9351 48.0424 66.1594 48.0306 66.3832C48.0188 66.6076 47.9632 66.8268 47.8671 67.0296C47.7709 67.2323 47.636 67.4134 47.4702 67.5637C47.3043 67.7135 47.1107 67.8296 46.9004 67.9042C45.3276 68.4817 43.7142 68.9401 42.0737 69.2766C40.4298 69.6172 38.7638 69.8398 37.0885 69.9429C34.7206 70.0784 32.345 69.9719 29.9984 69.624C27.6439 69.2835 25.3306 68.6992 23.095 67.8815L23.0837 67.9042ZM64.108 54.3456C63.9835 54.5325 63.824 54.693 63.6378 54.8178C63.4516 54.9426 63.2428 55.0293 63.0233 55.0729C62.8043 55.1165 62.5785 55.1162 62.359 55.072C62.14 55.0279 61.9312 54.9407 61.7456 54.8154C61.56 54.6901 61.4004 54.5293 61.2765 54.342C61.1526 54.1548 61.066 53.9448 61.023 53.724C60.9794 53.5032 60.98 53.276 61.0236 53.0553C61.0677 52.8347 61.1543 52.6249 61.2788 52.4379C65.5034 46.0835 67.3074 38.4084 66.359 30.8228C65.4112 23.2372 61.7745 16.2507 56.1181 11.147C55.9517 10.9974 55.8161 10.8163 55.7193 10.614C55.6223 10.4117 55.566 10.1922 55.5534 9.96802C55.5407 9.74383 55.5722 9.51929 55.6458 9.30734C55.7194 9.09534 55.8337 8.90001 55.9823 8.73248C56.131 8.56495 56.3109 8.42857 56.5119 8.33102C56.7129 8.23353 56.9313 8.17681 57.1537 8.16411C57.3766 8.15141 57.5996 8.18302 57.8101 8.2571C58.0212 8.33113 58.2152 8.44628 58.3816 8.59581C64.6496 14.2504 68.6784 21.9921 69.7275 30.3975C70.7766 38.8029 68.7752 47.3068 64.0911 54.3456H64.108Z" fill="white"/>
<path fill-rule="evenodd" clip-rule="evenodd" d="M51.597 9.79087C51.6087 9.96745 51.5842 10.1446 51.525 10.3112C51.4659 10.4779 51.3734 10.6306 51.2533 10.7598C51.1331 10.8891 50.9879 10.9921 50.8265 11.0625C50.6652 11.133 50.4912 11.1693 50.3154 11.1693C50.1395 11.1693 49.9655 11.133 49.8042 11.0625C49.6428 10.9921 49.4976 10.8891 49.3775 10.7598C49.2573 10.6306 49.1648 10.4779 49.1057 10.3112C49.0465 10.1446 49.022 9.96745 49.0337 9.79087V2.5873H47.4097V9.79087C47.3767 9.99348 47.2733 10.1777 47.1178 10.3106C46.9623 10.4435 46.7649 10.5165 46.5609 10.5165C46.3569 10.5165 46.1596 10.4435 46.0041 10.3106C45.8486 10.1777 45.7451 9.99348 45.7121 9.79087V2.5873H43.6128V9.79087C43.5798 9.99348 43.4764 10.1777 43.3209 10.3106C43.1654 10.4435 42.968 10.5165 42.7641 10.5165C42.5601 10.5165 42.3627 10.4435 42.2072 10.3106C42.0518 10.1777 41.9483 9.99348 41.9153 9.79087V2.5873H39.816V9.79087C39.8298 9.91131 39.8182 10.0333 39.7818 10.149C39.7455 10.2646 39.6853 10.3711 39.6051 10.4617C39.525 10.5522 39.4267 10.6247 39.3168 10.6743C39.2068 10.7239 39.0877 10.7495 38.9672 10.7495C38.8467 10.7495 38.7275 10.7239 38.6176 10.6743C38.5077 10.6247 38.4094 10.5522 38.3292 10.4617C38.2491 10.3711 38.1889 10.2646 38.1525 10.149C38.1162 10.0333 38.1045 9.91131 38.1184 9.79087V2.5873H36.0191V9.79087C36.033 9.91131 36.0213 10.0333 35.985 10.149C35.9486 10.2646 35.8884 10.3711 35.8083 10.4617C35.7281 10.5522 35.6298 10.6247 35.5199 10.6743C35.41 10.7239 35.2908 10.7495 35.1703 10.7495C35.0498 10.7495 34.9307 10.7239 34.8207 10.6743C34.7108 10.6247 34.6126 10.5522 34.5324 10.4617C34.4522 10.3711 34.392 10.2646 34.3557 10.149C34.3193 10.0333 34.3077 9.91131 34.3215 9.79087V2.5873H32.2222V9.79087C32.2361 9.91131 32.2244 10.0333 32.1881 10.149C32.1518 10.2646 32.0916 10.3711 32.0114 10.4617C31.9313 10.5522 31.833 10.6247 31.723 10.6743C31.6131 10.7239 31.4939 10.7495 31.3734 10.7495C31.253 10.7495 31.1338 10.7239 31.0239 10.6743C30.9139 10.6247 30.8157 10.5522 30.7355 10.4617C30.6553 10.3711 30.5951 10.2646 30.5588 10.149C30.5225 10.0333 30.5108 9.91131 30.5247 9.79087V2.5873H28.4254V9.79087C28.4012 10.0004 28.3015 10.1938 28.145 10.3341C27.9885 10.4744 27.7862 10.5519 27.5766 10.5519C27.367 10.5519 27.1647 10.4744 27.0082 10.3341C26.8517 10.1938 26.7519 10.0004 26.7278 9.79087V2.5873H24.6285V9.79087C24.6044 10.0004 24.5046 10.1938 24.3481 10.3341C24.1916 10.4744 23.9893 10.5519 23.7797 10.5519C23.5701 10.5519 23.3678 10.4744 23.2113 10.3341C23.0548 10.1938 22.955 10.0004 22.9309 9.79087V2.5873H20.9787V9.79087C20.9904 9.96745 20.9659 10.1446 20.9068 10.3112C20.8477 10.4779 20.7552 10.6306 20.635 10.7598C20.5148 10.8891 20.3696 10.9921 20.2083 11.0625C20.0469 11.133 19.8729 11.1693 19.6971 11.1693C19.5212 11.1693 19.3472 11.133 19.1859 11.0625C19.0246 10.9921 18.8793 10.8891 18.7592 10.7598C18.639 10.6306 18.5465 10.4779 18.4874 10.3112C18.4283 10.1446 18.4038 9.96745 18.4154 9.79087V1.30034V1.26617V1.232V1.19784V1.14659V1.10103C18.4189 1.09186 18.4189 1.08172 18.4154 1.07256C18.4154 1.07256 18.4154 1.07256 18.4154 1.03839C18.416 1.0289 18.416 1.0194 18.4154 1.00992C18.4149 1.00043 18.4149 0.990925 18.4154 0.981444C18.4154 0.981444 18.4154 0.981444 18.4154 0.947277V0.918804C18.4124 0.909557 18.4124 0.89958 18.4154 0.890332C18.4124 0.881084 18.4124 0.871107 18.4154 0.861859C18.413 0.850601 18.413 0.838944 18.4154 0.827692C18.4154 0.827692 18.4154 0.827692 18.4154 0.799219V0.770747V0.742274V0.713802C18.532 0.477962 18.7176 0.283799 18.9474 0.157525C19.1771 0.0312517 19.4397 -0.0210507 19.6999 0.00767959L50.3125 0.00767959C50.6532 0.00767959 50.9799 0.14387 51.2208 0.38629C51.4617 0.628708 51.597 0.957504 51.597 1.30034V9.79087Z" fill="white"/>
<path fill-rule="evenodd" clip-rule="evenodd" d="M9.79724 64.1041L6.40213 66.0801L5.40625 64.3717L8.63158 62.5039C8.97149 63.0716 9.36165 63.6069 9.79724 64.1041Z" fill="white"/>
<path fill-rule="evenodd" clip-rule="evenodd" d="M54.4715 10.8853L22.3877 48.6115L25.217 51.0487L38.4296 42.9056C43.2111 35.3888 56.22 18.2369 57.1877 10.4468C57.5273 7.64509 57.5329 7.29203 54.4715 10.8853Z" fill="white"/>
<path fill-rule="evenodd" clip-rule="evenodd" d="M20.6663 46.1326C18.1967 45.4644 15.5733 45.6789 13.2433 46.7394C10.9132 47.7999 9.02073 49.6408 7.88846 51.9483C6.75614 54.2559 6.45408 56.8871 7.0338 59.394C7.61351 61.9001 9.03907 64.1267 11.0675 65.6938C13.0959 67.2615 15.6016 68.0718 18.1575 67.9881C20.7134 67.9044 23.1613 66.9307 25.084 65.2337C27.0066 63.5367 28.2849 61.2213 28.701 58.6822C29.1171 56.1431 28.6453 53.5372 27.366 51.3089C25.9029 48.7579 23.4931 46.896 20.6663 46.1326ZM14.1534 50.4832C15.6158 49.6303 17.3269 49.3141 18.9951 49.5886C20.6633 49.8632 22.1852 50.7113 23.3015 51.9886C24.4179 53.2659 25.0595 54.8933 25.1171 56.5933C25.1747 58.2932 24.6447 59.9611 23.6175 61.3119C22.5902 62.6626 21.1292 63.613 19.4835 64.0014C17.8378 64.3898 16.1092 64.1916 14.5924 63.4411C13.0756 62.6905 11.8644 61.4332 11.1653 59.8848C10.4661 58.3359 10.3222 56.5912 10.7582 54.9477C11.0049 54.0156 11.4317 53.1414 12.0143 52.3754C12.5968 51.6093 13.3237 50.9663 14.1534 50.4832Z" fill="white"/>
<path fill-rule="evenodd" clip-rule="evenodd" d="M15.5404 10.8853L47.6242 48.6115L44.7949 51.0487L31.5823 42.9056C26.8008 35.3888 13.7919 18.2369 12.8243 10.4468C12.4565 7.64509 12.4565 7.29203 15.5404 10.8853Z" fill="white"/>
<path fill-rule="evenodd" clip-rule="evenodd" d="M49.345 46.1321C51.8122 45.4674 54.432 45.6842 56.7584 46.7454C59.0846 47.8066 60.9728 49.6468 62.1023 51.9522C63.2312 54.2576 63.5311 56.8857 62.9511 59.3889C62.3705 61.8917 60.9457 64.1148 58.9194 65.6791C56.8925 67.244 54.39 68.0526 51.8373 67.9683C49.2846 67.884 46.84 66.9114 44.92 65.2161C42.9999 63.5215 41.7232 61.2089 41.3075 58.6731C40.8917 56.1369 41.3625 53.5342 42.6396 51.3084C43.3648 50.0447 44.3302 48.9372 45.4807 48.049C46.6312 47.1608 47.9443 46.5095 49.345 46.1321ZM55.8579 50.4827C54.3945 49.6285 52.6819 49.3116 51.0122 49.586C49.3425 49.8604 47.819 50.7089 46.7014 51.9873C45.5839 53.2655 44.9415 54.8943 44.8837 56.5958C44.8259 58.2973 45.3564 59.9664 46.3846 61.3188C47.4127 62.6707 48.8751 63.6222 50.5223 64.0106C52.1695 64.399 53.8995 64.2002 55.4176 63.4486C56.9355 62.6975 58.1476 61.439 58.8469 59.8889C59.5463 58.3383 59.6901 56.592 59.2532 54.9472C58.7541 53.0649 57.533 51.459 55.8579 50.4827Z" fill="white"/>
<path fill-rule="evenodd" clip-rule="evenodd" d="M17.8094 52.2433C16.7504 52.2432 15.724 52.6126 14.9052 53.2887C14.0865 53.9648 13.5259 54.9056 13.3192 55.9509C13.1125 56.996 13.2723 58.0814 13.7715 59.0215C14.2706 59.9617 15.0782 60.698 16.0567 61.1063C17.0351 61.514 18.1238 61.5681 19.1373 61.2589C20.1508 60.9497 21.0264 60.296 21.6149 59.4099C22.2034 58.5238 22.4684 57.4595 22.3647 56.3991C22.2609 55.3384 21.795 54.3467 21.0461 53.5929C20.6217 53.1644 20.1171 52.8245 19.5617 52.5929C19.0062 52.3613 18.4107 52.2425 17.8094 52.2433ZM13.9673 52.9665C14.8556 52.0763 16.023 51.5234 17.2708 51.402C18.5186 51.2806 19.7697 51.5982 20.8109 52.3007C21.8522 53.0032 22.6194 54.0471 22.9818 55.2548C23.3443 56.4626 23.2796 57.7596 22.7987 58.9247C22.3179 60.0898 21.4507 61.0511 20.3447 61.645C19.2387 62.2389 17.9624 62.4286 16.733 62.182C15.5035 61.9354 14.397 61.268 13.6018 60.2925C12.8066 59.3171 12.3719 58.0945 12.3716 56.8331C12.3699 56.1144 12.5101 55.4025 12.784 54.7387C13.058 54.075 13.4602 53.4726 13.9673 52.9665Z" fill="white"/>
<path fill-rule="evenodd" clip-rule="evenodd" d="M52.2026 52.2426C51.1446 52.2478 50.1209 52.6216 49.3058 53.3006C48.4907 53.9796 47.9344 54.9218 47.7317 55.9669C47.529 57.0118 47.6923 58.0955 48.1939 59.0334C48.6955 59.9707 49.5043 60.7047 50.4828 61.1096C51.4614 61.515 52.5491 61.5663 53.5611 61.2554C54.5732 60.945 55.447 60.2907 56.0338 59.4046C56.6208 58.5186 56.8844 57.4554 56.7803 56.3956C56.6756 55.3359 56.2101 54.3453 55.462 53.5922C55.0386 53.1621 54.5343 52.8213 53.9786 52.5896C53.4229 52.3578 52.8268 52.2399 52.2253 52.2426H52.2026ZM48.3605 52.9658C49.2496 52.0699 50.42 51.5119 51.6721 51.387C52.9242 51.2622 54.1806 51.5781 55.2271 52.2811C56.2737 52.9841 57.0457 54.0305 57.4113 55.2421C57.7774 56.4536 57.714 57.7555 57.233 58.9252C56.7515 60.0954 55.8823 61.0612 54.7727 61.6585C53.6632 62.2559 52.3822 62.4472 51.1481 62.2001C49.9141 61.9535 48.8032 61.2833 48.0049 60.3044C47.2067 59.3261 46.7704 58.0989 46.7705 56.8324C46.7693 56.1143 46.9092 55.403 47.1821 54.7395C47.4549 54.0759 47.8554 53.4731 48.3605 52.9658Z" fill="white"/>
</svg>
